<mxfile host="65bd71144e">
    <diagram id="jLmh3lQ8Yi8I0h-SAiet" name="Page-1">
        <mxGraphModel dx="1794" dy="1224" grid="1" gridSize="10" guides="1" tooltips="1" connect="1" arrows="1" fold="1" page="1" pageScale="1" pageWidth="1100" pageHeight="850" math="0" shadow="0">
            <root>
                <mxCell id="0"/>
                <mxCell id="1" parent="0"/>
                <mxCell id="2" value="Filière" style="swimlane;startSize=20;" parent="1" vertex="1">
                    <mxGeometry x="390" y="-340" width="130" height="120" as="geometry"/>
                </mxCell>
                <mxCell id="27" value="nomFiliere" style="text;html=1;align=center;verticalAlign=middle;resizable=0;points=[];autosize=1;strokeColor=none;fillColor=none;" parent="2" vertex="1">
                    <mxGeometry x="25" y="45" width="80" height="30" as="geometry"/>
                </mxCell>
                <mxCell id="155" value="&lt;u&gt;idFiliere&lt;/u&gt;" style="text;html=1;align=center;verticalAlign=middle;resizable=0;points=[];autosize=1;strokeColor=none;fillColor=none;" parent="2" vertex="1">
                    <mxGeometry x="20" y="20" width="70" height="30" as="geometry"/>
                </mxCell>
                <mxCell id="117" style="edgeStyle=none;html=1;exitX=0.25;exitY=1;exitDx=0;exitDy=0;entryX=0.003;entryY=0.135;entryDx=0;entryDy=0;entryPerimeter=0;endArrow=none;endFill=0;" parent="1" source="3" target="113" edge="1">
                    <mxGeometry relative="1" as="geometry">
                        <mxPoint x="169.22222222222217" y="250" as="targetPoint"/>
                        <Array as="points">
                            <mxPoint x="169" y="200"/>
                            <mxPoint x="480" y="200"/>
                        </Array>
                    </mxGeometry>
                </mxCell>
                <mxCell id="138" style="edgeStyle=none;html=1;endArrow=none;endFill=0;" parent="1" edge="1">
                    <mxGeometry relative="1" as="geometry">
                        <mxPoint x="1530" y="-110" as="targetPoint"/>
                        <Array as="points">
                            <mxPoint x="40" y="85"/>
                            <mxPoint x="40" y="480"/>
                            <mxPoint x="1530" y="470"/>
                        </Array>
                        <mxPoint x="130" y="85" as="sourcePoint"/>
                    </mxGeometry>
                </mxCell>
                <mxCell id="3" value="Etudiant" style="swimlane;" parent="1" vertex="1">
                    <mxGeometry x="130" y="-30" width="160" height="190" as="geometry"/>
                </mxCell>
                <mxCell id="24" value="cne" style="text;html=1;align=center;verticalAlign=middle;resizable=0;points=[];autosize=1;strokeColor=none;fillColor=none;" parent="3" vertex="1">
                    <mxGeometry x="60" y="80" width="40" height="30" as="geometry"/>
                </mxCell>
                <mxCell id="25" value="cin" style="text;html=1;align=center;verticalAlign=middle;resizable=0;points=[];autosize=1;strokeColor=none;fillColor=none;" parent="3" vertex="1">
                    <mxGeometry x="60" y="100" width="40" height="30" as="geometry"/>
                </mxCell>
                <mxCell id="44" value="email" style="text;html=1;align=center;verticalAlign=middle;resizable=0;points=[];autosize=1;strokeColor=none;fillColor=none;" parent="3" vertex="1">
                    <mxGeometry x="55" y="120" width="50" height="30" as="geometry"/>
                </mxCell>
                <mxCell id="164" value="password" style="text;html=1;align=center;verticalAlign=middle;resizable=0;points=[];autosize=1;strokeColor=none;fillColor=none;" parent="3" vertex="1">
                    <mxGeometry x="45" y="140" width="70" height="30" as="geometry"/>
                </mxCell>
                <mxCell id="165" value="idEtudiant" style="text;html=1;align=center;verticalAlign=middle;resizable=0;points=[];autosize=1;strokeColor=none;fillColor=none;" parent="3" vertex="1">
                    <mxGeometry x="35" y="20" width="80" height="30" as="geometry"/>
                </mxCell>
                <mxCell id="166" value="photo" style="text;html=1;align=center;verticalAlign=middle;resizable=0;points=[];autosize=1;strokeColor=none;fillColor=none;" parent="3" vertex="1">
                    <mxGeometry x="55" y="160" width="50" height="30" as="geometry"/>
                </mxCell>
                <mxCell id="184" value="nom" style="text;html=1;align=center;verticalAlign=middle;resizable=0;points=[];autosize=1;strokeColor=none;fillColor=none;" parent="3" vertex="1">
                    <mxGeometry x="50" y="40" width="50" height="30" as="geometry"/>
                </mxCell>
                <mxCell id="185" value="prenom" style="text;html=1;align=center;verticalAlign=middle;resizable=0;points=[];autosize=1;strokeColor=none;fillColor=none;" parent="3" vertex="1">
                    <mxGeometry x="45" y="60" width="60" height="30" as="geometry"/>
                </mxCell>
                <mxCell id="141" style="edgeStyle=none;html=1;exitX=1;exitY=0;exitDx=0;exitDy=0;endArrow=none;endFill=0;" parent="1" source="4" edge="1">
                    <mxGeometry relative="1" as="geometry">
                        <mxPoint x="1470" y="-160" as="targetPoint"/>
                    </mxGeometry>
                </mxCell>
                <mxCell id="4" value="Professeur" style="swimlane;" parent="1" vertex="1">
                    <mxGeometry x="620" y="10" width="150" height="150" as="geometry"/>
                </mxCell>
                <mxCell id="54" value="&lt;u&gt;idProf&lt;/u&gt;" style="text;html=1;align=center;verticalAlign=middle;resizable=0;points=[];autosize=1;strokeColor=none;fillColor=none;" parent="4" vertex="1">
                    <mxGeometry x="47.5" y="20" width="50" height="30" as="geometry"/>
                </mxCell>
                <mxCell id="158" value="nom" style="text;html=1;align=center;verticalAlign=middle;resizable=0;points=[];autosize=1;strokeColor=none;fillColor=none;" parent="4" vertex="1">
                    <mxGeometry x="47.5" y="40" width="50" height="30" as="geometry"/>
                </mxCell>
                <mxCell id="159" value="prenom" style="text;html=1;align=center;verticalAlign=middle;resizable=0;points=[];autosize=1;strokeColor=none;fillColor=none;" parent="4" vertex="1">
                    <mxGeometry x="42.5" y="60" width="60" height="30" as="geometry"/>
                </mxCell>
                <mxCell id="160" value="email" style="text;html=1;align=center;verticalAlign=middle;resizable=0;points=[];autosize=1;strokeColor=none;fillColor=none;" parent="4" vertex="1">
                    <mxGeometry x="47.5" y="80" width="50" height="30" as="geometry"/>
                </mxCell>
                <mxCell id="161" value="password" style="text;html=1;align=center;verticalAlign=middle;resizable=0;points=[];autosize=1;strokeColor=none;fillColor=none;" parent="4" vertex="1">
                    <mxGeometry x="37.5" y="100" width="70" height="30" as="geometry"/>
                </mxCell>
                <mxCell id="167" value="photo" style="text;html=1;align=center;verticalAlign=middle;resizable=0;points=[];autosize=1;strokeColor=none;fillColor=none;" parent="4" vertex="1">
                    <mxGeometry x="42.5" y="120" width="50" height="30" as="geometry"/>
                </mxCell>
                <mxCell id="5" value="matière" style="swimlane;startSize=23;" parent="1" vertex="1">
                    <mxGeometry x="382.5" y="-130" width="147.5" height="80" as="geometry"/>
                </mxCell>
                <mxCell id="29" value="&lt;u&gt;id&lt;/u&gt;" style="text;html=1;align=center;verticalAlign=middle;resizable=0;points=[];autosize=1;strokeColor=none;fillColor=none;" parent="5" vertex="1">
                    <mxGeometry x="53.75" y="25" width="30" height="30" as="geometry"/>
                </mxCell>
                <mxCell id="30" value="nomMatiere" style="text;html=1;align=center;verticalAlign=middle;resizable=0;points=[];autosize=1;strokeColor=none;fillColor=none;" parent="5" vertex="1">
                    <mxGeometry x="23.75" y="50" width="90" height="30" as="geometry"/>
                </mxCell>
                <mxCell id="8" value="" style="endArrow=none;html=1;exitX=0.438;exitY=0;exitDx=0;exitDy=0;exitPerimeter=0;entryX=0.25;entryY=1;entryDx=0;entryDy=0;" parent="1" source="3" target="198" edge="1">
                    <mxGeometry width="50" height="50" relative="1" as="geometry">
                        <mxPoint x="240" y="-160" as="sourcePoint"/>
                        <mxPoint x="290" y="-210" as="targetPoint"/>
                        <Array as="points">
                            <mxPoint x="200" y="-275"/>
                        </Array>
                    </mxGeometry>
                </mxCell>
                <mxCell id="11" value="" style="endArrow=none;html=1;entryX=0.5;entryY=1;entryDx=0;entryDy=0;exitX=0.5;exitY=0;exitDx=0;exitDy=0;" parent="1" source="5" target="2" edge="1">
                    <mxGeometry width="50" height="50" relative="1" as="geometry">
                        <mxPoint x="452.5" y="-130" as="sourcePoint"/>
                        <mxPoint x="502.5" y="-180" as="targetPoint"/>
                    </mxGeometry>
                </mxCell>
                <mxCell id="12" value="" style="endArrow=none;html=1;entryX=0.5;entryY=0;entryDx=0;entryDy=0;" parent="1" target="4" edge="1">
                    <mxGeometry width="50" height="50" relative="1" as="geometry">
                        <mxPoint x="530" y="-70" as="sourcePoint"/>
                        <mxPoint x="650" y="-110" as="targetPoint"/>
                        <Array as="points">
                            <mxPoint x="695" y="-70"/>
                        </Array>
                    </mxGeometry>
                </mxCell>
                <mxCell id="13" value="1..*" style="text;html=1;align=center;verticalAlign=middle;resizable=0;points=[];autosize=1;strokeColor=none;fillColor=none;" parent="1" vertex="1">
                    <mxGeometry x="530" y="-100" width="40" height="30" as="geometry"/>
                </mxCell>
                <mxCell id="14" value="&lt;font style=&quot;font-size: 14px;&quot;&gt;*&lt;/font&gt;" style="text;html=1;align=center;verticalAlign=middle;resizable=0;points=[];autosize=1;strokeColor=none;fillColor=none;" parent="1" vertex="1">
                    <mxGeometry x="170" y="-60" width="30" height="30" as="geometry"/>
                </mxCell>
                <mxCell id="15" value="&lt;span style=&quot;font-size: 13px;&quot;&gt;1&lt;/span&gt;" style="text;html=1;align=center;verticalAlign=middle;resizable=0;points=[];autosize=1;strokeColor=none;fillColor=none;" parent="1" vertex="1">
                    <mxGeometry x="690" y="-20" width="30" height="30" as="geometry"/>
                </mxCell>
                <mxCell id="16" value="1" style="text;html=1;align=center;verticalAlign=middle;resizable=0;points=[];autosize=1;strokeColor=none;fillColor=none;" parent="1" vertex="1">
                    <mxGeometry x="455" y="-220" width="30" height="30" as="geometry"/>
                </mxCell>
                <mxCell id="17" value="&lt;font style=&quot;font-size: 14px;&quot;&gt;1..*&lt;/font&gt;" style="text;html=1;align=center;verticalAlign=middle;resizable=0;points=[];autosize=1;strokeColor=none;fillColor=none;" parent="1" vertex="1">
                    <mxGeometry x="455" y="-160" width="40" height="30" as="geometry"/>
                </mxCell>
                <mxCell id="151" style="edgeStyle=none;html=1;exitX=1;exitY=0.5;exitDx=0;exitDy=0;endArrow=none;endFill=0;" parent="1" source="41" edge="1">
                    <mxGeometry relative="1" as="geometry">
                        <mxPoint x="1990" y="-190.5" as="targetPoint"/>
                    </mxGeometry>
                </mxCell>
                <mxCell id="41" value="utilisateur" style="swimlane;startSize=23;" parent="1" vertex="1">
                    <mxGeometry x="1470" y="-270" width="150" height="160" as="geometry"/>
                </mxCell>
                <mxCell id="42" value="nom&amp;nbsp;" style="text;html=1;align=center;verticalAlign=middle;resizable=0;points=[];autosize=1;strokeColor=none;fillColor=none;" parent="41" vertex="1">
                    <mxGeometry x="50" y="65" width="50" height="30" as="geometry"/>
                </mxCell>
                <mxCell id="43" value="prenom" style="text;html=1;align=center;verticalAlign=middle;resizable=0;points=[];autosize=1;strokeColor=none;fillColor=none;" parent="41" vertex="1">
                    <mxGeometry x="45" y="90" width="60" height="30" as="geometry"/>
                </mxCell>
                <mxCell id="45" value="password" style="text;html=1;align=center;verticalAlign=middle;resizable=0;points=[];autosize=1;strokeColor=none;fillColor=none;" parent="41" vertex="1">
                    <mxGeometry x="40" y="110" width="70" height="30" as="geometry"/>
                </mxCell>
                <mxCell id="46" value="&lt;font style=&quot;color: light-dark(rgb(0, 0, 0), rgb(255, 255, 255));&quot;&gt;username&lt;/font&gt;" style="text;html=1;align=center;verticalAlign=middle;resizable=0;points=[];autosize=1;strokeColor=none;fillColor=none;" parent="41" vertex="1">
                    <mxGeometry x="35" y="40" width="80" height="30" as="geometry"/>
                </mxCell>
                <mxCell id="134" value="role" style="text;html=1;align=center;verticalAlign=middle;resizable=0;points=[];autosize=1;strokeColor=none;fillColor=none;" parent="41" vertex="1">
                    <mxGeometry x="55" y="130" width="40" height="30" as="geometry"/>
                </mxCell>
                <mxCell id="156" value="id" style="text;html=1;align=center;verticalAlign=middle;resizable=0;points=[];autosize=1;strokeColor=none;fillColor=none;" parent="41" vertex="1">
                    <mxGeometry x="60" y="20" width="30" height="30" as="geometry"/>
                </mxCell>
                <mxCell id="52" value="&lt;font style=&quot;font-size: 13px;&quot;&gt;1&lt;/font&gt;" style="text;html=1;align=center;verticalAlign=middle;resizable=0;points=[];autosize=1;strokeColor=none;fillColor=none;" parent="1" vertex="1">
                    <mxGeometry x="240" y="-740" width="30" height="30" as="geometry"/>
                </mxCell>
                <mxCell id="55" value="&lt;font style=&quot;font-size: 14px;&quot;&gt;Est enseigné par&lt;/font&gt;" style="text;html=1;align=center;verticalAlign=middle;resizable=0;points=[];autosize=1;strokeColor=none;fillColor=none;" parent="1" vertex="1">
                    <mxGeometry x="580" y="-100" width="130" height="30" as="geometry"/>
                </mxCell>
                <mxCell id="56" value="Contient" style="text;html=1;align=center;verticalAlign=middle;resizable=0;points=[];autosize=1;strokeColor=none;fillColor=none;" parent="1" vertex="1">
                    <mxGeometry x="200" y="-700" width="70" height="30" as="geometry"/>
                </mxCell>
                <mxCell id="57" value="Contient" style="text;html=1;align=center;verticalAlign=middle;resizable=0;points=[];autosize=1;strokeColor=none;fillColor=none;" parent="1" vertex="1">
                    <mxGeometry x="450" y="-190" width="70" height="30" as="geometry"/>
                </mxCell>
                <mxCell id="128" style="edgeStyle=none;html=1;exitX=1;exitY=0.25;exitDx=0;exitDy=0;endArrow=none;endFill=0;" parent="1" source="58" edge="1">
                    <mxGeometry relative="1" as="geometry">
                        <mxPoint x="970" y="250" as="targetPoint"/>
                        <Array as="points">
                            <mxPoint x="1030" y="-370"/>
                            <mxPoint x="1030" y="-80"/>
                            <mxPoint x="1030" y="250"/>
                        </Array>
                    </mxGeometry>
                </mxCell>
                <mxCell id="135" style="edgeStyle=none;html=1;exitX=1;exitY=0.75;exitDx=0;exitDy=0;entryX=0;entryY=0.5;entryDx=0;entryDy=0;endArrow=none;endFill=0;" parent="1" source="58" target="41" edge="1">
                    <mxGeometry relative="1" as="geometry"/>
                </mxCell>
                <mxCell id="58" value="Administrateur" style="swimlane;" parent="1" vertex="1">
                    <mxGeometry x="627.5" y="-410" width="185" height="160" as="geometry"/>
                </mxCell>
                <mxCell id="63" value="nom" style="text;html=1;align=center;verticalAlign=middle;resizable=0;points=[];autosize=1;strokeColor=none;fillColor=none;" parent="58" vertex="1">
                    <mxGeometry x="62.5" y="50" width="50" height="30" as="geometry"/>
                </mxCell>
                <mxCell id="64" value="prenom" style="text;html=1;align=center;verticalAlign=middle;resizable=0;points=[];autosize=1;strokeColor=none;fillColor=none;" parent="58" vertex="1">
                    <mxGeometry x="57.5" y="70" width="60" height="30" as="geometry"/>
                </mxCell>
                <mxCell id="66" value="password" style="text;html=1;align=center;verticalAlign=middle;resizable=0;points=[];autosize=1;strokeColor=none;fillColor=none;" parent="58" vertex="1">
                    <mxGeometry x="57.5" y="110" width="70" height="30" as="geometry"/>
                </mxCell>
                <mxCell id="67" value="email" style="text;html=1;align=center;verticalAlign=middle;resizable=0;points=[];autosize=1;strokeColor=none;fillColor=none;" parent="58" vertex="1">
                    <mxGeometry x="62.5" y="90" width="50" height="30" as="geometry"/>
                </mxCell>
                <mxCell id="68" value="&lt;u&gt;IdAdmin&lt;/u&gt;" style="text;html=1;align=center;verticalAlign=middle;resizable=0;points=[];autosize=1;strokeColor=none;fillColor=none;" parent="58" vertex="1">
                    <mxGeometry x="52.5" y="30" width="70" height="30" as="geometry"/>
                </mxCell>
                <mxCell id="168" value="photo" style="text;html=1;align=center;verticalAlign=middle;resizable=0;points=[];autosize=1;strokeColor=none;fillColor=none;" parent="58" vertex="1">
                    <mxGeometry x="67.5" y="130" width="50" height="30" as="geometry"/>
                </mxCell>
                <mxCell id="60" value="Gère" style="text;html=1;align=center;verticalAlign=middle;resizable=0;points=[];autosize=1;strokeColor=none;fillColor=none;" parent="1" vertex="1">
                    <mxGeometry x="730" y="-167.5" width="50" height="30" as="geometry"/>
                </mxCell>
                <mxCell id="61" value="&lt;font style=&quot;font-size: 14px;&quot;&gt;*&lt;/font&gt;" style="text;html=1;align=center;verticalAlign=middle;resizable=0;points=[];autosize=1;strokeColor=none;fillColor=none;" parent="1" vertex="1">
                    <mxGeometry x="730" y="-40" width="30" height="30" as="geometry"/>
                </mxCell>
                <mxCell id="62" value="&lt;span style=&quot;font-size: 14px;&quot;&gt;1&lt;/span&gt;" style="text;html=1;align=center;verticalAlign=middle;resizable=0;points=[];autosize=1;strokeColor=none;fillColor=none;" parent="1" vertex="1">
                    <mxGeometry x="720" y="-250" width="30" height="30" as="geometry"/>
                </mxCell>
                <mxCell id="123" style="edgeStyle=none;html=1;exitX=1;exitY=0;exitDx=0;exitDy=0;entryX=1;entryY=0;entryDx=0;entryDy=0;endArrow=none;endFill=0;entryPerimeter=0;" parent="1" source="70" target="127" edge="1">
                    <mxGeometry relative="1" as="geometry"/>
                </mxCell>
                <mxCell id="70" value="Absence" style="swimlane;fontSize=15;startSize=40;" parent="1" vertex="1">
                    <mxGeometry x="325" y="285" width="200" height="140" as="geometry">
                        <mxRectangle x="320" y="340" width="100" height="40" as="alternateBounds"/>
                    </mxGeometry>
                </mxCell>
                <mxCell id="74" value="&lt;font style=&quot;font-size: 15px;&quot;&gt;date&lt;/font&gt;" style="text;html=1;align=center;verticalAlign=middle;resizable=0;points=[];autosize=1;strokeColor=none;fillColor=none;" parent="70" vertex="1">
                    <mxGeometry x="75" y="65" width="50" height="30" as="geometry"/>
                </mxCell>
                <mxCell id="76" value="&lt;font style=&quot;font-size: 16px;&quot;&gt;horaire&lt;/font&gt;" style="text;html=1;align=center;verticalAlign=middle;resizable=0;points=[];autosize=1;strokeColor=none;fillColor=none;" parent="70" vertex="1">
                    <mxGeometry x="65" y="95" width="70" height="30" as="geometry"/>
                </mxCell>
                <mxCell id="87" value="&lt;span style=&quot;font-size: 14px;&quot;&gt;&lt;u&gt;id&lt;/u&gt;&lt;/span&gt;" style="text;html=1;align=center;verticalAlign=middle;resizable=0;points=[];autosize=1;strokeColor=none;fillColor=none;" parent="70" vertex="1">
                    <mxGeometry x="85" y="45" width="30" height="30" as="geometry"/>
                </mxCell>
                <mxCell id="79" value="&lt;span style=&quot;font-size: 14px;&quot;&gt;*&lt;/span&gt;" style="text;html=1;align=center;verticalAlign=middle;resizable=0;points=[];autosize=1;strokeColor=none;fillColor=none;" parent="1" vertex="1">
                    <mxGeometry x="100" y="130" width="30" height="30" as="geometry"/>
                </mxCell>
                <mxCell id="85" value="*" style="text;html=1;align=center;verticalAlign=middle;resizable=0;points=[];autosize=1;strokeColor=none;fillColor=none;" parent="1" vertex="1">
                    <mxGeometry x="465" y="-42" width="30" height="30" as="geometry"/>
                </mxCell>
                <mxCell id="88" value="" style="endArrow=none;html=1;" parent="1" edge="1">
                    <mxGeometry width="50" height="50" relative="1" as="geometry">
                        <mxPoint x="320" y="370" as="sourcePoint"/>
                        <mxPoint x="140" y="160" as="targetPoint"/>
                        <Array as="points">
                            <mxPoint x="140" y="370"/>
                        </Array>
                    </mxGeometry>
                </mxCell>
                <mxCell id="89" value="" style="endArrow=none;html=1;entryX=0.562;entryY=1.07;entryDx=0;entryDy=0;entryPerimeter=0;" parent="1" target="30" edge="1">
                    <mxGeometry width="50" height="50" relative="1" as="geometry">
                        <mxPoint x="457" y="280" as="sourcePoint"/>
                        <mxPoint x="481.25" y="160" as="targetPoint"/>
                    </mxGeometry>
                </mxCell>
                <mxCell id="93" value="&lt;span style=&quot;font-size: 14px;&quot;&gt;1&lt;/span&gt;" style="text;html=1;align=center;verticalAlign=middle;resizable=0;points=[];autosize=1;strokeColor=none;fillColor=none;" parent="1" vertex="1">
                    <mxGeometry x="290" y="370" width="30" height="30" as="geometry"/>
                </mxCell>
                <mxCell id="94" value="1" style="text;html=1;align=center;verticalAlign=middle;resizable=0;points=[];autosize=1;strokeColor=none;fillColor=none;" parent="1" vertex="1">
                    <mxGeometry x="460" y="255" width="30" height="30" as="geometry"/>
                </mxCell>
                <mxCell id="95" value="Possède" style="text;html=1;align=center;verticalAlign=middle;resizable=0;points=[];autosize=1;strokeColor=none;fillColor=none;" parent="1" vertex="1">
                    <mxGeometry x="170" y="340" width="70" height="30" as="geometry"/>
                </mxCell>
                <mxCell id="96" value="Concerné par" style="text;html=1;align=center;verticalAlign=middle;resizable=0;points=[];autosize=1;strokeColor=none;fillColor=none;" parent="1" vertex="1">
                    <mxGeometry x="450" y="140" width="100" height="30" as="geometry"/>
                </mxCell>
                <mxCell id="100" value="&lt;font style=&quot;font-size: 18px;&quot;&gt;&lt;b style=&quot;&quot;&gt;Modèle Logique&lt;/b&gt;&lt;/font&gt;" style="text;html=1;align=center;verticalAlign=middle;resizable=0;points=[];autosize=1;strokeColor=none;fillColor=none;" parent="1" vertex="1">
                    <mxGeometry x="547.5" y="950" width="160" height="40" as="geometry"/>
                </mxCell>
                <mxCell id="101" value="" style="endArrow=none;html=1;" parent="1" edge="1">
                    <mxGeometry width="50" height="50" relative="1" as="geometry">
                        <mxPoint x="150" y="-30" as="sourcePoint"/>
                        <mxPoint x="630" y="-360" as="targetPoint"/>
                        <Array as="points">
                            <mxPoint x="150" y="-360"/>
                        </Array>
                    </mxGeometry>
                </mxCell>
                <mxCell id="102" value="" style="endArrow=none;html=1;exitX=1.031;exitY=0.96;exitDx=0;exitDy=0;exitPerimeter=0;" parent="1" source="15" edge="1">
                    <mxGeometry width="50" height="50" relative="1" as="geometry">
                        <mxPoint x="660" y="-160" as="sourcePoint"/>
                        <mxPoint x="719" y="-250" as="targetPoint"/>
                        <Array as="points"/>
                    </mxGeometry>
                </mxCell>
                <mxCell id="103" value="&lt;span style=&quot;font-size: 14px;&quot;&gt;1&lt;/span&gt;" style="text;html=1;align=center;verticalAlign=middle;resizable=0;points=[];autosize=1;strokeColor=none;fillColor=none;" parent="1" vertex="1">
                    <mxGeometry x="585" y="-390" width="30" height="30" as="geometry"/>
                </mxCell>
                <mxCell id="104" value="&lt;font style=&quot;font-size: 14px;&quot;&gt;*&lt;/font&gt;" style="text;html=1;align=center;verticalAlign=middle;resizable=0;points=[];autosize=1;strokeColor=none;fillColor=none;" parent="1" vertex="1">
                    <mxGeometry x="115" y="-70" width="30" height="30" as="geometry"/>
                </mxCell>
                <mxCell id="105" value="Gère" style="text;html=1;align=center;verticalAlign=middle;resizable=0;points=[];autosize=1;strokeColor=none;fillColor=none;" parent="1" vertex="1">
                    <mxGeometry x="400" y="-390" width="50" height="30" as="geometry"/>
                </mxCell>
                <mxCell id="106" value="&lt;font style=&quot;font-size: 15px;&quot;&gt;Filière [ &lt;u style=&quot;&quot;&gt;code_filière&lt;/u&gt;, Nom_filière, Niveau ]&amp;nbsp;&lt;/font&gt;" style="text;html=1;align=center;verticalAlign=middle;resizable=0;points=[];autosize=1;strokeColor=none;fillColor=none;" parent="1" vertex="1">
                    <mxGeometry x="537.5" y="1000" width="310" height="30" as="geometry"/>
                </mxCell>
                <mxCell id="107" value="&lt;font style=&quot;font-size: 14px;&quot;&gt;Module [&amp;nbsp; &lt;u style=&quot;&quot;&gt;code_module&lt;/u&gt;, intutilé_module,&amp;nbsp; Nom_filière#, CIN_Prof#, Id_Absence# ]&amp;nbsp;&lt;/font&gt;" style="text;html=1;align=center;verticalAlign=middle;resizable=0;points=[];autosize=1;strokeColor=none;fillColor=none;" parent="1" vertex="1">
                    <mxGeometry x="537.5" y="1060" width="540" height="30" as="geometry"/>
                </mxCell>
                <mxCell id="109" value="&lt;font style=&quot;font-size: 14px;&quot;&gt;Professeur [ &lt;u style=&quot;&quot;&gt;CNI_Prof&lt;/u&gt;, Identifiant, Nom, Prenom, Password, IdentifiantAdmin# ]&amp;nbsp; &amp;nbsp;&lt;/font&gt;" style="text;html=1;align=center;verticalAlign=middle;resizable=0;points=[];autosize=1;strokeColor=none;fillColor=none;" parent="1" vertex="1">
                    <mxGeometry x="537.5" y="1030" width="530" height="30" as="geometry"/>
                </mxCell>
                <mxCell id="110" value="&lt;font style=&quot;font-size: 14px;&quot;&gt;Etudiant&amp;nbsp; [ &lt;u style=&quot;&quot;&gt;Identifiant&lt;/u&gt;, CNI_Etudiant, Nom, Prenom, Password, CNE, Email, IdentifiantAdmin#, nom_filière# , Id_Absence# ]&lt;/font&gt;" style="text;html=1;align=center;verticalAlign=middle;resizable=0;points=[];autosize=1;strokeColor=none;fillColor=none;" parent="1" vertex="1">
                    <mxGeometry x="537.5" y="1090" width="790" height="30" as="geometry"/>
                </mxCell>
                <mxCell id="111" value="&lt;font style=&quot;font-size: 15px;&quot;&gt;Absence&amp;nbsp; [ &lt;u style=&quot;&quot;&gt;Id_Absence&lt;/u&gt;, Date, Horaire ]&amp;nbsp;&lt;/font&gt;" style="text;html=1;align=center;verticalAlign=middle;resizable=0;points=[];autosize=1;strokeColor=none;fillColor=none;" parent="1" vertex="1">
                    <mxGeometry x="537.5" y="1150" width="290" height="30" as="geometry"/>
                </mxCell>
                <mxCell id="112" value="&lt;font style=&quot;font-size: 14px;&quot;&gt;Administration [ &lt;u style=&quot;&quot;&gt;Identifiant_Admin&lt;/u&gt;, Nom_Admin, Prenom_Admin, Email_Admin, Password ]&lt;/font&gt;" style="text;html=1;align=center;verticalAlign=middle;resizable=0;points=[];autosize=1;strokeColor=none;fillColor=none;" parent="1" vertex="1">
                    <mxGeometry x="537.5" y="1120" width="590" height="30" as="geometry"/>
                </mxCell>
                <mxCell id="113" value="Justificatif" style="swimlane;fontSize=15;startSize=40;" parent="1" vertex="1">
                    <mxGeometry x="770" y="180" width="200" height="150" as="geometry">
                        <mxRectangle x="320" y="340" width="100" height="40" as="alternateBounds"/>
                    </mxGeometry>
                </mxCell>
                <mxCell id="114" value="&lt;font style=&quot;font-size: 15px;&quot;&gt;dateSoumission&lt;/font&gt;" style="text;html=1;align=center;verticalAlign=middle;resizable=0;points=[];autosize=1;strokeColor=none;fillColor=none;" parent="113" vertex="1">
                    <mxGeometry x="35" y="65" width="130" height="30" as="geometry"/>
                </mxCell>
                <mxCell id="116" value="&lt;span style=&quot;font-size: 14px;&quot;&gt;&lt;u&gt;idJustificatif&lt;/u&gt;&lt;/span&gt;" style="text;html=1;align=center;verticalAlign=middle;resizable=0;points=[];autosize=1;strokeColor=none;fillColor=none;" parent="113" vertex="1">
                    <mxGeometry x="50" y="45" width="100" height="30" as="geometry"/>
                </mxCell>
                <mxCell id="162" value="&lt;span style=&quot;font-size: 15px;&quot;&gt;statut&lt;/span&gt;" style="text;html=1;align=center;verticalAlign=middle;resizable=0;points=[];autosize=1;strokeColor=none;fillColor=none;" parent="113" vertex="1">
                    <mxGeometry x="80" y="90" width="60" height="30" as="geometry"/>
                </mxCell>
                <mxCell id="163" value="&lt;span style=&quot;font-size: 15px;&quot;&gt;message&lt;/span&gt;" style="text;html=1;align=center;verticalAlign=middle;resizable=0;points=[];autosize=1;strokeColor=none;fillColor=none;" parent="113" vertex="1">
                    <mxGeometry x="70" y="110" width="80" height="30" as="geometry"/>
                </mxCell>
                <mxCell id="118" value="soumetre" style="text;html=1;align=center;verticalAlign=middle;resizable=0;points=[];autosize=1;strokeColor=none;fillColor=none;" parent="1" vertex="1">
                    <mxGeometry x="300" y="170" width="70" height="30" as="geometry"/>
                </mxCell>
                <mxCell id="121" value="0..*" style="text;html=1;align=center;verticalAlign=middle;resizable=0;points=[];autosize=1;strokeColor=none;fillColor=none;" parent="1" vertex="1">
                    <mxGeometry x="730" y="170" width="40" height="30" as="geometry"/>
                </mxCell>
                <mxCell id="122" value="1" style="text;html=1;align=center;verticalAlign=middle;resizable=0;points=[];autosize=1;strokeColor=none;fillColor=none;" parent="1" vertex="1">
                    <mxGeometry x="170" y="160" width="30" height="30" as="geometry"/>
                </mxCell>
                <mxCell id="124" value="Possède" style="text;html=1;align=center;verticalAlign=middle;resizable=0;points=[];autosize=1;strokeColor=none;fillColor=none;" parent="1" vertex="1">
                    <mxGeometry x="610" y="255" width="70" height="30" as="geometry"/>
                </mxCell>
                <mxCell id="125" value="1" style="text;html=1;align=center;verticalAlign=middle;resizable=0;points=[];autosize=1;strokeColor=none;fillColor=none;" parent="1" vertex="1">
                    <mxGeometry x="517.5" y="285" width="30" height="30" as="geometry"/>
                </mxCell>
                <mxCell id="127" value="0..1" style="text;html=1;align=center;verticalAlign=middle;resizable=0;points=[];autosize=1;strokeColor=none;fillColor=none;" parent="1" vertex="1">
                    <mxGeometry x="730" y="285" width="40" height="30" as="geometry"/>
                </mxCell>
                <mxCell id="129" value="Accepte ou réfuse" style="text;html=1;align=center;verticalAlign=middle;resizable=0;points=[];autosize=1;strokeColor=none;fillColor=none;" parent="1" vertex="1">
                    <mxGeometry x="1030" y="10" width="120" height="30" as="geometry"/>
                </mxCell>
                <mxCell id="131" value="*" style="text;html=1;align=center;verticalAlign=middle;resizable=0;points=[];autosize=1;strokeColor=none;fillColor=none;" parent="1" vertex="1">
                    <mxGeometry x="975" y="218" width="30" height="30" as="geometry"/>
                </mxCell>
                <mxCell id="132" value="1" style="text;html=1;align=center;verticalAlign=middle;resizable=0;points=[];autosize=1;strokeColor=none;fillColor=none;" parent="1" vertex="1">
                    <mxGeometry x="812.5" y="-400" width="30" height="30" as="geometry"/>
                </mxCell>
                <mxCell id="136" value="1" style="text;html=1;align=center;verticalAlign=middle;resizable=0;points=[];autosize=1;strokeColor=none;fillColor=none;" parent="1" vertex="1">
                    <mxGeometry x="812.5" y="-330" width="30" height="30" as="geometry"/>
                </mxCell>
                <mxCell id="137" value="1" style="text;html=1;align=center;verticalAlign=middle;resizable=0;points=[];autosize=1;strokeColor=none;fillColor=none;" parent="1" vertex="1">
                    <mxGeometry x="1440" y="-220" width="30" height="30" as="geometry"/>
                </mxCell>
                <mxCell id="139" value="1" style="text;html=1;align=center;verticalAlign=middle;resizable=0;points=[];autosize=1;strokeColor=none;fillColor=none;" parent="1" vertex="1">
                    <mxGeometry x="100" y="60" width="30" height="30" as="geometry"/>
                </mxCell>
                <mxCell id="140" value="1" style="text;html=1;align=center;verticalAlign=middle;resizable=0;points=[];autosize=1;strokeColor=none;fillColor=none;" parent="1" vertex="1">
                    <mxGeometry x="1510" y="-110" width="30" height="30" as="geometry"/>
                </mxCell>
                <mxCell id="142" value="1" style="text;html=1;align=center;verticalAlign=middle;resizable=0;points=[];autosize=1;strokeColor=none;fillColor=none;" parent="1" vertex="1">
                    <mxGeometry x="770" y="10" width="30" height="30" as="geometry"/>
                </mxCell>
                <mxCell id="143" value="1" style="text;html=1;align=center;verticalAlign=middle;resizable=0;points=[];autosize=1;strokeColor=none;fillColor=none;" parent="1" vertex="1">
                    <mxGeometry x="1435" y="-180" width="30" height="30" as="geometry"/>
                </mxCell>
                <mxCell id="145" value="etre" style="text;html=1;align=center;verticalAlign=middle;resizable=0;points=[];autosize=1;strokeColor=none;fillColor=none;" parent="1" vertex="1">
                    <mxGeometry x="1120" y="-280" width="40" height="30" as="geometry"/>
                </mxCell>
                <mxCell id="146" value="etre" style="text;html=1;align=center;verticalAlign=middle;resizable=0;points=[];autosize=1;strokeColor=none;fillColor=none;" parent="1" vertex="1">
                    <mxGeometry x="1100" y="-110" width="40" height="30" as="geometry"/>
                </mxCell>
                <mxCell id="147" value="recuperationPassword" style="swimlane;fontSize=15;startSize=40;" parent="1" vertex="1">
                    <mxGeometry x="1990" y="-260" width="200" height="140" as="geometry">
                        <mxRectangle x="320" y="340" width="100" height="40" as="alternateBounds"/>
                    </mxGeometry>
                </mxCell>
                <mxCell id="148" value="&lt;span style=&quot;font-size: 15px;&quot;&gt;email&lt;/span&gt;" style="text;html=1;align=center;verticalAlign=middle;resizable=0;points=[];autosize=1;strokeColor=none;fillColor=none;" parent="147" vertex="1">
                    <mxGeometry x="65" y="60" width="60" height="30" as="geometry"/>
                </mxCell>
                <mxCell id="150" value="&lt;font style=&quot;font-size: 14px;&quot;&gt;code&amp;nbsp;&lt;/font&gt;" style="text;html=1;align=center;verticalAlign=middle;resizable=0;points=[];autosize=1;strokeColor=none;fillColor=none;" parent="147" vertex="1">
                    <mxGeometry x="65" y="100" width="60" height="30" as="geometry"/>
                </mxCell>
                <mxCell id="157" value="&lt;span style=&quot;font-size: 14px;&quot;&gt;id&amp;nbsp;&lt;/span&gt;" style="text;html=1;align=center;verticalAlign=middle;resizable=0;points=[];autosize=1;strokeColor=none;fillColor=none;" parent="147" vertex="1">
                    <mxGeometry x="75" y="40" width="40" height="30" as="geometry"/>
                </mxCell>
                <mxCell id="174" value="&lt;span style=&quot;font-size: 15px;&quot;&gt;date&lt;/span&gt;" style="text;html=1;align=center;verticalAlign=middle;resizable=0;points=[];autosize=1;strokeColor=none;fillColor=none;" parent="147" vertex="1">
                    <mxGeometry x="70" y="80" width="50" height="30" as="geometry"/>
                </mxCell>
                <mxCell id="152" value="&lt;span style=&quot;font-size: 15px; font-weight: 700;&quot;&gt;&lt;font style=&quot;color: light-dark(rgb(255, 255, 255), rgb(255, 255, 255));&quot;&gt;reintialiser mot de passe&lt;/font&gt;&lt;/span&gt;" style="text;html=1;align=center;verticalAlign=middle;resizable=0;points=[];autosize=1;strokeColor=none;fillColor=none;" parent="1" vertex="1">
                    <mxGeometry x="1720" y="-220" width="200" height="30" as="geometry"/>
                </mxCell>
                <mxCell id="153" value="0..*" style="text;html=1;align=center;verticalAlign=middle;resizable=0;points=[];autosize=1;strokeColor=none;fillColor=none;" parent="1" vertex="1">
                    <mxGeometry x="1960" y="-220" width="40" height="30" as="geometry"/>
                </mxCell>
                <mxCell id="154" value="1" style="text;html=1;align=center;verticalAlign=middle;resizable=0;points=[];autosize=1;strokeColor=none;fillColor=none;" parent="1" vertex="1">
                    <mxGeometry x="1620" y="-220" width="30" height="30" as="geometry"/>
                </mxCell>
                <mxCell id="169" value="listePresence" style="swimlane;startSize=30;" parent="1" vertex="1">
                    <mxGeometry x="-130" y="-420" width="130" height="140" as="geometry"/>
                </mxCell>
                <mxCell id="170" value="date" style="text;html=1;align=center;verticalAlign=middle;resizable=0;points=[];autosize=1;strokeColor=none;fillColor=none;" parent="169" vertex="1">
                    <mxGeometry x="40" y="50" width="50" height="30" as="geometry"/>
                </mxCell>
                <mxCell id="171" value="niveau" style="text;html=1;align=center;verticalAlign=middle;resizable=0;points=[];autosize=1;strokeColor=none;fillColor=none;" parent="169" vertex="1">
                    <mxGeometry x="35" y="70" width="60" height="30" as="geometry"/>
                </mxCell>
                <mxCell id="172" value="filière" style="text;html=1;align=center;verticalAlign=middle;resizable=0;points=[];autosize=1;strokeColor=none;fillColor=none;" parent="169" vertex="1">
                    <mxGeometry x="40" y="90" width="50" height="30" as="geometry"/>
                </mxCell>
                <mxCell id="173" value="&lt;u&gt;id&lt;/u&gt;" style="text;html=1;align=center;verticalAlign=middle;resizable=0;points=[];autosize=1;strokeColor=none;fillColor=none;" parent="169" vertex="1">
                    <mxGeometry x="50" y="30" width="30" height="30" as="geometry"/>
                </mxCell>
                <mxCell id="175" value="imageJustificatif" style="text;html=1;align=center;verticalAlign=middle;resizable=0;points=[];autosize=1;strokeColor=none;fillColor=none;" parent="169" vertex="1">
                    <mxGeometry x="10" y="110" width="110" height="30" as="geometry"/>
                </mxCell>
                <mxCell id="176" value="" style="endArrow=none;html=1;exitX=0.5;exitY=0;exitDx=0;exitDy=0;entryX=0.549;entryY=-0.002;entryDx=0;entryDy=0;entryPerimeter=0;" parent="1" source="169" target="58" edge="1">
                    <mxGeometry width="50" height="50" relative="1" as="geometry">
                        <mxPoint x="210" y="-425" as="sourcePoint"/>
                        <mxPoint x="690" y="-460" as="targetPoint"/>
                        <Array as="points">
                            <mxPoint x="-65" y="-460"/>
                            <mxPoint x="730" y="-460"/>
                        </Array>
                    </mxGeometry>
                </mxCell>
                <mxCell id="177" value="" style="endArrow=none;html=1;exitX=-0.003;exitY=0.922;exitDx=0;exitDy=0;exitPerimeter=0;entryX=0;entryY=0.5;entryDx=0;entryDy=0;" parent="1" source="175" target="4" edge="1">
                    <mxGeometry width="50" height="50" relative="1" as="geometry">
                        <mxPoint x="20" y="-230" as="sourcePoint"/>
                        <mxPoint x="70" y="-280" as="targetPoint"/>
                    </mxGeometry>
                </mxCell>
                <mxCell id="178" value="Gère listes de présence" style="text;html=1;align=center;verticalAlign=middle;resizable=0;points=[];autosize=1;strokeColor=none;fillColor=none;" parent="1" vertex="1">
                    <mxGeometry x="282.5" y="-490" width="150" height="30" as="geometry"/>
                </mxCell>
                <mxCell id="179" value="Envoi liste de présence" style="text;html=1;align=center;verticalAlign=middle;resizable=0;points=[];autosize=1;strokeColor=none;fillColor=none;" parent="1" vertex="1">
                    <mxGeometry x="-35" y="-180" width="150" height="30" as="geometry"/>
                </mxCell>
                <mxCell id="180" value="&lt;span style=&quot;font-size: 14px;&quot;&gt;1&lt;/span&gt;" style="text;html=1;align=center;verticalAlign=middle;resizable=0;points=[];autosize=1;strokeColor=none;fillColor=none;" parent="1" vertex="1">
                    <mxGeometry x="730" y="-440" width="30" height="30" as="geometry"/>
                </mxCell>
                <mxCell id="181" value="&lt;span style=&quot;font-size: 14px;&quot;&gt;*&lt;/span&gt;" style="text;html=1;align=center;verticalAlign=middle;resizable=0;points=[];autosize=1;strokeColor=none;fillColor=none;" parent="1" vertex="1">
                    <mxGeometry x="-100" y="-450" width="30" height="30" as="geometry"/>
                </mxCell>
                <mxCell id="182" value="&lt;span style=&quot;font-size: 14px;&quot;&gt;0,1&lt;/span&gt;" style="text;html=1;align=center;verticalAlign=middle;resizable=0;points=[];autosize=1;strokeColor=none;fillColor=none;" parent="1" vertex="1">
                    <mxGeometry x="-135" y="-280" width="40" height="30" as="geometry"/>
                </mxCell>
                <mxCell id="183" value="1" style="text;html=1;align=center;verticalAlign=middle;resizable=0;points=[];autosize=1;strokeColor=none;fillColor=none;" parent="1" vertex="1">
                    <mxGeometry x="580" y="70" width="30" height="30" as="geometry"/>
                </mxCell>
                <mxCell id="192" style="edgeStyle=none;html=1;entryX=1;entryY=0.5;entryDx=0;entryDy=0;endArrow=none;endFill=0;" parent="1" source="186" target="2" edge="1">
                    <mxGeometry relative="1" as="geometry">
                        <Array as="points">
                            <mxPoint x="580" y="-280"/>
                        </Array>
                    </mxGeometry>
                </mxCell>
                <mxCell id="186" value="Niveau" style="swimlane;startSize=20;" parent="1" vertex="1">
                    <mxGeometry x="520" y="-690" width="130" height="90" as="geometry"/>
                </mxCell>
                <mxCell id="188" value="nomNiveau" style="text;html=1;align=center;verticalAlign=middle;resizable=0;points=[];autosize=1;strokeColor=none;fillColor=none;" parent="186" vertex="1">
                    <mxGeometry x="20" y="50" width="80" height="30" as="geometry"/>
                </mxCell>
                <mxCell id="190" value="&lt;u&gt;idNiveau&lt;/u&gt;" style="text;html=1;align=center;verticalAlign=middle;resizable=0;points=[];autosize=1;strokeColor=none;fillColor=none;" parent="186" vertex="1">
                    <mxGeometry x="20" y="20" width="70" height="30" as="geometry"/>
                </mxCell>
                <mxCell id="194" value="Possède" style="text;html=1;align=center;verticalAlign=middle;resizable=0;points=[];autosize=1;strokeColor=none;fillColor=none;" parent="1" vertex="1">
                    <mxGeometry x="585" y="-520" width="70" height="30" as="geometry"/>
                </mxCell>
                <mxCell id="195" value="&lt;span style=&quot;font-size: 14px;&quot;&gt;*&lt;/span&gt;" style="text;html=1;align=center;verticalAlign=middle;resizable=0;points=[];autosize=1;strokeColor=none;fillColor=none;" parent="1" vertex="1">
                    <mxGeometry x="555" y="-600" width="30" height="30" as="geometry"/>
                </mxCell>
                <mxCell id="196" value="&lt;span style=&quot;font-size: 14px;&quot;&gt;*&lt;/span&gt;" style="text;html=1;align=center;verticalAlign=middle;resizable=0;points=[];autosize=1;strokeColor=none;fillColor=none;" parent="1" vertex="1">
                    <mxGeometry x="530" y="-310" width="30" height="30" as="geometry"/>
                </mxCell>
                <mxCell id="197" value="" style="endArrow=none;dashed=1;html=1;" parent="1" edge="1">
                    <mxGeometry width="50" height="50" relative="1" as="geometry">
                        <mxPoint x="300" y="-740" as="sourcePoint"/>
                        <mxPoint x="580" y="-540" as="targetPoint"/>
                        <Array as="points">
                            <mxPoint x="300" y="-540"/>
                        </Array>
                    </mxGeometry>
                </mxCell>
                <mxCell id="198" value="Classe" style="swimlane;startSize=20;" parent="1" vertex="1">
                    <mxGeometry x="240" y="-830" width="130" height="90" as="geometry"/>
                </mxCell>
                <mxCell id="199" value="nomClasse" style="text;html=1;align=center;verticalAlign=middle;resizable=0;points=[];autosize=1;strokeColor=none;fillColor=none;" parent="198" vertex="1">
                    <mxGeometry x="20" y="50" width="80" height="30" as="geometry"/>
                </mxCell>
                <mxCell id="200" value="&lt;u&gt;idClasse&lt;/u&gt;" style="text;html=1;align=center;verticalAlign=middle;resizable=0;points=[];autosize=1;strokeColor=none;fillColor=none;" parent="198" vertex="1">
                    <mxGeometry x="20" y="20" width="70" height="30" as="geometry"/>
                </mxCell>
                <mxCell id="201" value="departement" style="swimlane;startSize=20;" parent="1" vertex="1">
                    <mxGeometry x="70" y="-640" width="130" height="90" as="geometry"/>
                </mxCell>
                <mxCell id="202" value="nomDepartement" style="text;html=1;align=center;verticalAlign=middle;resizable=0;points=[];autosize=1;strokeColor=none;fillColor=none;" parent="201" vertex="1">
                    <mxGeometry y="50" width="120" height="30" as="geometry"/>
                </mxCell>
                <mxCell id="203" value="&lt;u&gt;idDepartement&lt;/u&gt;" style="text;html=1;align=center;verticalAlign=middle;resizable=0;points=[];autosize=1;strokeColor=none;fillColor=none;" parent="201" vertex="1">
                    <mxGeometry x="5" y="20" width="100" height="30" as="geometry"/>
                </mxCell>
                <mxCell id="204" value="" style="endArrow=none;html=1;exitX=0.75;exitY=1;exitDx=0;exitDy=0;entryX=0;entryY=0.25;entryDx=0;entryDy=0;" parent="1" source="201" target="2" edge="1">
                    <mxGeometry width="50" height="50" relative="1" as="geometry">
                        <mxPoint x="300" y="-400" as="sourcePoint"/>
                        <mxPoint x="350" y="-450" as="targetPoint"/>
                    </mxGeometry>
                </mxCell>
                <mxCell id="205" value="&lt;span style=&quot;font-size: 14px;&quot;&gt;*&lt;/span&gt;" style="text;html=1;align=center;verticalAlign=middle;resizable=0;points=[];autosize=1;strokeColor=none;fillColor=none;" parent="1" vertex="1">
                    <mxGeometry x="360" y="-320" width="30" height="30" as="geometry"/>
                </mxCell>
                <mxCell id="206" value="&lt;span style=&quot;font-size: 14px;&quot;&gt;1&lt;/span&gt;" style="text;html=1;align=center;verticalAlign=middle;resizable=0;points=[];autosize=1;strokeColor=none;fillColor=none;" parent="1" vertex="1">
                    <mxGeometry x="140" y="-550" width="30" height="30" as="geometry"/>
                </mxCell>
                <mxCell id="207" value="appartient" style="text;html=1;align=center;verticalAlign=middle;resizable=0;points=[];autosize=1;strokeColor=none;fillColor=none;" parent="1" vertex="1">
                    <mxGeometry x="302.5" y="-410" width="80" height="30" as="geometry"/>
                </mxCell>
                <mxCell id="208" value="" style="endArrow=none;html=1;entryX=0;entryY=0.25;entryDx=0;entryDy=0;exitX=0;exitY=0.25;exitDx=0;exitDy=0;" edge="1" parent="1" source="5" target="198">
                    <mxGeometry width="50" height="50" relative="1" as="geometry">
                        <mxPoint x="-20" y="-610" as="sourcePoint"/>
                        <mxPoint x="30" y="-660" as="targetPoint"/>
                        <Array as="points">
                            <mxPoint x="-70" y="-630"/>
                        </Array>
                    </mxGeometry>
                </mxCell>
                <mxCell id="209" value="&lt;font style=&quot;font-size: 13px;&quot;&gt;1&lt;/font&gt;" style="text;html=1;align=center;verticalAlign=middle;resizable=0;points=[];autosize=1;strokeColor=none;fillColor=none;" vertex="1" parent="1">
                    <mxGeometry x="210" y="-830" width="30" height="30" as="geometry"/>
                </mxCell>
                <mxCell id="210" value="&lt;font style=&quot;font-size: 14px;&quot;&gt;1..*&lt;/font&gt;" style="text;html=1;align=center;verticalAlign=middle;resizable=0;points=[];autosize=1;strokeColor=none;fillColor=none;" vertex="1" parent="1">
                    <mxGeometry x="360" y="-160" width="40" height="30" as="geometry"/>
                </mxCell>
                <mxCell id="211" value="appartient" style="text;html=1;align=center;verticalAlign=middle;resizable=0;points=[];autosize=1;strokeColor=none;fillColor=none;" vertex="1" parent="1">
                    <mxGeometry x="-80" y="-570" width="80" height="30" as="geometry"/>
                </mxCell>
            </root>
        </mxGraphModel>
    </diagram>
</mxfile>